<?xml version="1.0" encoding="utf-8"?>
<!-- Generator: Adobe Illustrator 26.1.0, SVG Export Plug-In . SVG Version: 6.00 Build 0)  -->
<svg version="1.1" id="Layer_1" xmlns="http://www.w3.org/2000/svg" xmlns:xlink="http://www.w3.org/1999/xlink" x="0px" y="0px"
	 viewBox="0 0 512 512" style="enable-background:new 0 0 512 512;" xml:space="preserve">
<style type="text/css">
	.st0{fill:#D71920;}
	.st1{fill:#5085B6;}
	.st2{fill:#F15A22;}
	.st3{fill:#FFF4DE;}
	.st4{fill:#FFFFFF;}
</style>
<g>
	<g>
		<path d="M256.46,512.83L256.46,512.83c-142.1,0-257.29-115.19-257.29-257.29v0c0-142.1,115.19-257.29,257.29-257.29h0
			c142.1,0,257.29,115.19,257.29,257.29v0C513.75,397.64,398.56,512.83,256.46,512.83z"/>
	</g>
	<g>
		<g>
			<g>
				<g>
					<path class="st0" d="M256.46,414.47c-21.45,0-42.27-4.2-61.86-12.49c-18.93-8.01-35.92-19.46-50.52-34.06
						c-14.59-14.59-26.05-31.59-34.06-50.52c-8.29-19.6-12.49-40.41-12.49-61.86s4.2-42.27,12.49-61.86
						c8-18.93,19.46-35.92,34.06-50.52c14.59-14.59,31.59-26.05,50.52-34.06c19.6-8.29,40.41-12.49,61.86-12.49
						s42.27,4.2,61.86,12.49c18.93,8,35.92,19.46,50.52,34.06s26.05,31.59,34.06,50.52c8.29,19.6,12.49,40.41,12.49,61.86
						s-4.2,42.27-12.49,61.86c-8,18.93-19.46,35.92-34.06,50.52s-31.59,26.05-50.52,34.06
						C298.73,410.27,277.91,414.47,256.46,414.47z M256.46,104.71c-83.17,0-150.83,67.66-150.83,150.83s67.66,150.83,150.83,150.83
						s150.83-67.66,150.83-150.83S339.63,104.71,256.46,104.71z"/>
				</g>
			</g>
			<g>
				<g>
					<path class="st1" d="M256.35,402.81c-19.9,0-39.21-3.9-57.39-11.59c-17.56-7.43-33.33-18.06-46.86-31.6
						s-24.17-29.31-31.6-46.86c-7.69-18.18-11.59-37.49-11.59-57.39s3.9-39.21,11.59-57.39c7.43-17.56,18.06-33.33,31.6-46.86
						s29.31-24.17,46.86-31.6c18.18-7.69,37.49-11.59,57.39-11.59s39.21,3.9,57.39,11.59c17.56,7.43,33.33,18.06,46.86,31.6
						s24.17,29.31,31.6,46.86c7.69,18.18,11.59,37.49,11.59,57.39s-3.9,39.21-11.59,57.39c-7.43,17.56-18.06,33.33-31.6,46.86
						s-29.31,24.17-46.86,31.6C295.57,398.91,276.26,402.81,256.35,402.81z M256.35,113.56c-78.19,0-141.8,63.61-141.8,141.8
						s63.61,141.8,141.8,141.8c78.19,0,141.8-63.61,141.8-141.8S334.54,113.56,256.35,113.56z"/>
				</g>
			</g>
			<g>
				<g>
					<path class="st1" d="M256.35,399.47c-19.45,0-38.33-3.81-56.09-11.33c-17.16-7.26-32.57-17.65-45.8-30.88
						c-13.23-13.23-23.62-28.64-30.88-45.8c-7.51-17.77-11.33-36.64-11.33-56.09s3.81-38.33,11.33-56.09
						c7.26-17.16,17.65-32.57,30.88-45.8c13.23-13.23,28.64-23.62,45.8-30.88c17.77-7.51,36.64-11.33,56.09-11.33
						s38.33,3.81,56.09,11.33c17.16,7.26,32.57,17.65,45.8,30.88c13.23,13.23,23.62,28.64,30.88,45.8
						c7.51,17.77,11.33,36.64,11.33,56.09s-3.81,38.33-11.33,56.09c-7.26,17.16-17.65,32.57-30.88,45.8
						c-13.23,13.23-28.64,23.62-45.8,30.88C294.68,395.66,275.81,399.47,256.35,399.47z M256.35,116.9
						c-76.35,0-138.47,62.12-138.47,138.47S180,393.83,256.35,393.83s138.47-62.12,138.47-138.47S332.7,116.9,256.35,116.9z"/>
				</g>
			</g>
			<g>
				<g>
					<path class="st2" d="M256.35,393.85c-18.69,0-36.83-3.66-53.9-10.88c-16.49-6.97-31.3-16.96-44.02-29.68
						c-12.72-12.72-22.7-27.53-29.68-44.02c-7.22-17.07-10.88-35.21-10.88-53.9s3.66-36.83,10.88-53.9
						c6.97-16.49,16.96-31.3,29.68-44.02c12.72-12.72,27.53-22.7,44.02-29.68c17.07-7.22,35.21-10.88,53.9-10.88
						c18.69,0,36.83,3.66,53.9,10.88c16.49,6.97,31.3,16.96,44.02,29.68c12.72,12.72,22.7,27.53,29.68,44.02
						c7.22,17.07,10.88,35.21,10.88,53.9s-3.66,36.83-10.88,53.9c-6.97,16.49-16.96,31.3-29.68,44.02
						c-12.72,12.72-27.53,22.7-44.02,29.68C293.18,390.18,275.05,393.85,256.35,393.85z M256.35,122.53
						c-73.25,0-132.84,59.59-132.84,132.84s59.59,132.84,132.84,132.84s132.84-59.59,132.84-132.84S329.6,122.53,256.35,122.53z"/>
				</g>
			</g>
			<g>
				<g>
					<path class="st1" d="M256.46,380.47c-16.89,0-33.27-3.31-48.7-9.83c-14.9-6.3-28.27-15.32-39.76-26.81
						c-11.49-11.49-20.51-24.87-26.81-39.76c-6.52-15.43-9.83-31.81-9.83-48.7s3.31-33.27,9.83-48.7
						c6.3-14.9,15.32-28.27,26.81-39.76s24.87-20.51,39.76-26.81c15.43-6.52,31.81-9.83,48.7-9.83c16.89,0,33.27,3.31,48.7,9.83
						c14.9,6.3,28.28,15.32,39.76,26.81c11.49,11.49,20.51,24.87,26.81,39.76c6.52,15.43,9.83,31.81,9.83,48.7
						s-3.31,33.27-9.83,48.7c-6.3,14.9-15.32,28.28-26.81,39.76c-11.49,11.49-24.87,20.51-39.76,26.81
						C289.73,377.16,273.35,380.47,256.46,380.47z M256.46,139.78c-63.73,0-115.58,51.85-115.58,115.58
						c0,63.73,51.85,115.58,115.58,115.58c63.73,0,115.58-51.85,115.58-115.58C372.04,191.63,320.19,139.78,256.46,139.78z"/>
				</g>
			</g>
			<g>
				<g>
					<path class="st3" d="M256.35,411.05c-21.02,0-41.41-4.12-60.6-12.24c-18.54-7.84-35.19-19.07-49.49-33.36
						c-14.3-14.3-25.52-30.95-33.36-49.49c-8.12-19.19-12.24-39.58-12.24-60.6c0-21.02,4.12-41.41,12.24-60.6
						c7.84-18.54,19.07-35.19,33.36-49.49c14.3-14.3,30.95-25.52,49.49-33.36c19.19-8.12,39.58-12.24,60.6-12.24
						c21.02,0,41.41,4.12,60.6,12.24c18.54,7.84,35.19,19.07,49.49,33.36c14.3,14.3,25.52,30.95,33.36,49.49
						c8.12,19.19,12.24,39.58,12.24,60.6c0,21.02-4.12,41.41-12.24,60.6c-7.84,18.54-19.07,35.19-33.36,49.49
						c-14.3,14.3-30.95,25.52-49.49,33.36C297.76,406.94,277.37,411.05,256.35,411.05z M256.35,101.44
						c-84.87,0-153.92,69.05-153.92,153.92s69.05,153.92,153.92,153.92s153.92-69.05,153.92-153.92S341.23,101.44,256.35,101.44z"/>
				</g>
			</g>
			<g>
				<g>
					<path class="st3" d="M256.35,400.87c-19.64,0-38.7-3.85-56.64-11.43c-17.33-7.33-32.89-17.82-46.25-31.18
						c-13.36-13.36-23.85-28.92-31.18-46.25c-7.59-17.94-11.43-36.99-11.43-56.64s3.85-38.7,11.43-56.64
						c7.33-17.33,17.82-32.89,31.18-46.25s28.92-23.85,46.25-31.18c17.94-7.59,36.99-11.43,56.64-11.43
						c19.64,0,38.7,3.85,56.64,11.43c17.33,7.33,32.89,17.82,46.25,31.18c13.36,13.36,23.85,28.92,31.18,46.25
						c7.59,17.94,11.43,36.99,11.43,56.64s-3.85,38.7-11.43,56.64c-7.33,17.33-17.82,32.89-31.18,46.25
						c-13.36,13.36-28.92,23.85-46.25,31.18C295.05,397.02,276,400.87,256.35,400.87z M256.35,111.63
						c-79.26,0-143.74,64.48-143.74,143.74s64.48,143.74,143.74,143.74s143.74-64.48,143.74-143.74S335.61,111.63,256.35,111.63z"/>
				</g>
			</g>
			<g>
				<g>
					<path class="st3" d="M256.35,391.91c-18.43,0-36.31-3.61-53.15-10.73c-16.26-6.88-30.86-16.72-43.4-29.26
						c-12.54-12.54-22.38-27.14-29.26-43.4c-7.12-16.83-10.73-34.72-10.73-53.15s3.61-36.31,10.73-53.15
						c6.88-16.26,16.72-30.86,29.26-43.4c12.54-12.54,27.14-22.38,43.4-29.26c16.83-7.12,34.72-10.73,53.15-10.73
						c18.43,0,36.31,3.61,53.15,10.73c16.26,6.88,30.86,16.72,43.4,29.26s22.38,27.14,29.26,43.4
						c7.12,16.83,10.73,34.72,10.73,53.15s-3.61,36.31-10.73,53.15c-6.88,16.26-16.72,30.86-29.26,43.4s-27.14,22.38-43.4,29.26
						C292.67,388.3,274.79,391.91,256.35,391.91z M256.35,120.59c-74.32,0-134.78,60.46-134.78,134.78s60.46,134.78,134.78,134.78
						s134.78-60.46,134.78-134.78S330.67,120.59,256.35,120.59z"/>
				</g>
			</g>
			<g>
				<g>
					<path class="st3" d="M256.35,397.53c-19.19,0-37.81-3.76-55.34-11.17c-16.93-7.16-32.13-17.41-45.19-30.47
						s-23.31-28.26-30.47-45.19c-7.41-17.53-11.17-36.15-11.17-55.34s3.76-37.81,11.17-55.34c7.16-16.93,17.41-32.13,30.47-45.19
						s28.26-23.31,45.19-30.47c17.53-7.41,36.15-11.17,55.34-11.17c19.19,0,37.81,3.76,55.34,11.17
						c16.93,7.16,32.13,17.41,45.19,30.47s23.31,28.26,30.47,45.19c7.41,17.53,11.17,36.15,11.17,55.34s-3.76,37.81-11.17,55.34
						c-7.16,16.93-17.41,32.13-30.47,45.19s-28.26,23.31-45.19,30.47C294.16,393.77,275.55,397.53,256.35,397.53z M256.35,114.96
						c-77.42,0-140.4,62.99-140.4,140.4s62.99,140.4,140.4,140.4s140.4-62.99,140.4-140.4S333.77,114.96,256.35,114.96z"/>
				</g>
			</g>
			<g>
				<g>
					<path class="st3" d="M256.35,376.59c-32.38,0-62.82-12.61-85.72-35.51c-22.9-22.9-35.51-53.34-35.51-85.72
						s12.61-62.82,35.51-85.72c22.9-22.9,53.34-35.5,85.72-35.5s62.82,12.61,85.72,35.5c22.9,22.9,35.5,53.34,35.5,85.72
						s-12.61,62.82-35.5,85.72C319.18,363.98,288.73,376.59,256.35,376.59z M256.35,135.91c-65.87,0-119.46,53.59-119.46,119.46
						c0,65.87,53.59,119.46,119.46,119.46c65.87,0,119.46-53.59,119.46-119.46C375.81,189.5,322.22,135.91,256.35,135.91z"/>
				</g>
			</g>
		</g>
		<g>
			<path class="st4" d="M260.23,90.17l1.28-21.59l13.06,0.77l-0.14,2.43l-10.3-0.61l-0.44,7.39l9.32,0.55l-0.14,2.43L263.54,81
				l-0.55,9.33L260.23,90.17z"/>
			<path class="st4" d="M285.44,93.12c-1.68-0.3-3.08-0.89-4.22-1.76c-1.14-0.88-1.95-1.95-2.43-3.22c-0.48-1.27-0.6-2.63-0.34-4.08
				L280.94,70l2.72,0.48l-2.45,13.84c-0.18,1.02-0.12,1.97,0.2,2.84c0.31,0.88,0.85,1.62,1.6,2.22s1.72,1.01,2.88,1.22
				c1.16,0.21,2.2,0.15,3.12-0.16c0.91-0.31,1.67-0.82,2.26-1.54c0.59-0.72,0.97-1.58,1.15-2.6l2.45-13.84l2.72,0.48L295.09,87
				c-0.26,1.46-0.83,2.7-1.72,3.72c-0.89,1.02-2.01,1.75-3.37,2.19C288.63,93.35,287.11,93.42,285.44,93.12z"/>
			<path class="st4" d="M298.25,95.33l6.53-20.62l3.1,0.98l4.21,15.85c0.11,0.41,0.24,0.93,0.39,1.57c0.14,0.63,0.29,1.35,0.44,2.14
				c0.15,0.79,0.28,1.62,0.39,2.5l-0.37-0.12c0.17-0.82,0.35-1.6,0.54-2.33c0.19-0.74,0.38-1.41,0.56-2.02
				c0.18-0.61,0.34-1.13,0.48-1.55l4.01-12.65l2.63,0.83l-6.53,20.62l-3.13-0.99l-3.76-14.1c-0.17-0.65-0.33-1.32-0.5-2.01
				c-0.16-0.69-0.34-1.49-0.53-2.42c-0.19-0.93-0.43-2.08-0.72-3.45l0.48,0.15c-0.28,1.04-0.54,2-0.77,2.88
				c-0.24,0.88-0.45,1.65-0.63,2.3c-0.18,0.65-0.33,1.16-0.45,1.53l-3.73,11.76L298.25,95.33z"/>
			<path class="st4" d="M330.51,83.77l-9.14,19.6l-2.5-1.17l9.14-19.6L330.51,83.77z M324.99,105.06l-4.74-2.21l1.03-2.21l4.58,2.13
				c1.6,0.74,3.06,1.06,4.39,0.94c1.33-0.12,2.52-0.63,3.57-1.53c1.05-0.9,1.94-2.14,2.68-3.73c0.73-1.57,1.1-3.04,1.12-4.4
				c0.01-1.37-0.35-2.59-1.08-3.67c-0.73-1.08-1.86-1.97-3.37-2.68l-4.92-2.29l1.03-2.21l5.09,2.37c1.91,0.89,3.36,2.04,4.36,3.46
				c0.99,1.41,1.51,3.02,1.55,4.82c0.04,1.8-0.41,3.71-1.35,5.74c-0.95,2.04-2.14,3.63-3.55,4.76c-1.41,1.13-3,1.76-4.76,1.9
				C328.86,106.38,326.98,105.99,324.99,105.06z"/>
			<path class="st4" d="M335.18,109.84l18.05-14.27l2.72,1.68l-4.61,22.58l-2.47-1.53l2.85-13.33c0.18-0.82,0.42-1.84,0.73-3.04
				c0.31-1.2,0.72-2.73,1.23-4.57l0.44,0.27c-1.42,1.31-2.61,2.37-3.57,3.19c-0.96,0.82-1.74,1.48-2.34,1.98l-10.54,8.57
				L335.18,109.84z M341.72,106.78l1.27-2.05l9.45,5.84l-1.27,2.05L341.72,106.78z"/>
			<path class="st4" d="M359.43,126.59c-1.45-1.15-2.46-2.53-3.03-4.13c-0.58-1.6-0.67-3.31-0.29-5.12c0.38-1.81,1.29-3.62,2.71-5.4
				c1.43-1.8,2.98-3.09,4.66-3.87c1.68-0.78,3.37-1.08,5.06-0.88c1.69,0.2,3.26,0.87,4.71,2.02c0.86,0.68,1.57,1.45,2.13,2.3
				c0.56,0.85,0.96,1.76,1.18,2.73c0.22,0.96,0.27,1.95,0.13,2.96c-0.14,1.01-0.48,2.01-1.02,3l-2.16-1.72
				c0.34-0.68,0.54-1.36,0.6-2.03c0.06-0.67,0-1.33-0.18-1.96c-0.18-0.64-0.46-1.23-0.85-1.79c-0.39-0.55-0.86-1.05-1.41-1.49
				c-1.02-0.81-2.14-1.28-3.36-1.41c-1.23-0.13-2.48,0.11-3.75,0.72c-1.27,0.62-2.48,1.65-3.63,3.1c-1.14,1.44-1.87,2.85-2.18,4.23
				c-0.31,1.38-0.26,2.65,0.15,3.81c0.41,1.16,1.12,2.14,2.13,2.94c0.55,0.44,1.14,0.78,1.78,1.03c0.63,0.25,1.28,0.39,1.93,0.42
				c0.66,0.03,1.31-0.05,1.95-0.26c0.64-0.21,1.26-0.56,1.83-1.04l2.16,1.72c-0.83,0.75-1.72,1.3-2.67,1.66
				c-0.95,0.36-1.92,0.54-2.91,0.54c-0.99,0-1.97-0.17-2.93-0.52C361.2,127.79,360.29,127.27,359.43,126.59z"/>
			<path class="st4" d="M385.95,120.72l-14.87,15.71l-2-1.9l14.87-15.71L385.95,120.72z"/>
			<path class="st4" d="M380.23,146.4c-1.22-1.39-1.98-2.92-2.26-4.59s-0.08-3.38,0.61-5.1c0.69-1.72,1.9-3.34,3.61-4.85
				c1.72-1.52,3.48-2.51,5.27-2.99s3.51-0.47,5.14,0.02c1.63,0.49,3.06,1.43,4.28,2.81c1.22,1.39,1.97,2.92,2.25,4.59
				c0.28,1.68,0.07,3.37-0.63,5.09c-0.7,1.72-1.9,3.34-3.62,4.85c-1.71,1.51-3.46,2.51-5.26,2.98c-1.79,0.48-3.5,0.47-5.13-0.02
				C382.87,148.72,381.45,147.78,380.23,146.4z M382.14,144.71c0.85,0.97,1.87,1.62,3.05,1.97c1.18,0.35,2.45,0.33,3.81-0.05
				c1.36-0.38,2.73-1.18,4.11-2.4c1.39-1.23,2.36-2.5,2.91-3.8c0.55-1.3,0.72-2.56,0.52-3.77c-0.2-1.21-0.72-2.3-1.58-3.27
				c-0.86-0.97-1.88-1.63-3.07-1.98c-1.19-0.35-2.46-0.33-3.82,0.05c-1.36,0.38-2.73,1.18-4.12,2.41c-1.38,1.22-2.34,2.48-2.88,3.77
				c-0.54,1.3-0.72,2.56-0.52,3.78C380.75,142.64,381.28,143.73,382.14,144.71z M397.49,129.63l4.55-1.3l1.93,2.19l-5.06,0.71
				L397.49,129.63z"/>
			<path class="st4" d="M389.01,156.39l17.96-12.06l1.81,2.7l-6.58,15.02c-0.17,0.39-0.39,0.88-0.68,1.47
				c-0.28,0.59-0.61,1.23-0.98,1.95c-0.37,0.71-0.79,1.44-1.25,2.2l-0.22-0.33c0.64-0.54,1.27-1.03,1.88-1.49s1.18-0.87,1.7-1.23
				c0.52-0.36,0.97-0.67,1.34-0.92l11.02-7.4l1.54,2.29l-17.96,12.06l-1.83-2.72l5.85-13.37c0.27-0.62,0.56-1.24,0.86-1.88
				c0.3-0.64,0.66-1.38,1.09-2.23c0.43-0.85,0.96-1.9,1.59-3.15l0.28,0.42c-0.86,0.64-1.66,1.23-2.4,1.77
				c-0.73,0.54-1.38,1.01-1.92,1.41s-0.98,0.7-1.31,0.92l-10.25,6.88L389.01,156.39z"/>
			<path class="st4" d="M403.9,180.11l22.96-1.56l1.29,2.92l-16.57,16.02l-1.17-2.66l9.88-9.38c0.61-0.58,1.39-1.28,2.32-2.1
				c0.93-0.82,2.13-1.85,3.6-3.07l0.21,0.48c-1.91,0.27-3.49,0.48-4.75,0.62c-1.26,0.14-2.27,0.24-3.05,0.31l-13.54,1.11
				L403.9,180.11z M411.02,181.28l2.2-0.97l4.49,10.16l-2.2,0.97L411.02,181.28z"/>
			<path class="st4" d="M414.39,207.78c-0.49-1.63-0.6-3.15-0.33-4.56c0.27-1.41,0.86-2.62,1.77-3.62c0.91-1,2.07-1.72,3.49-2.15
				l13.66-4.13l0.8,2.64l-13.45,4.06c-0.99,0.3-1.81,0.79-2.45,1.46c-0.64,0.67-1.06,1.49-1.26,2.44c-0.2,0.95-0.13,1.99,0.21,3.12
				c0.34,1.13,0.86,2.03,1.55,2.71c0.69,0.68,1.49,1.12,2.39,1.32c0.9,0.2,1.85,0.15,2.84-0.15l13.45-4.06l0.8,2.64l-13.66,4.13
				c-1.42,0.43-2.78,0.48-4.1,0.15c-1.31-0.33-2.47-1-3.48-2.02C415.64,210.73,414.89,209.41,414.39,207.78z"/>
			<path class="st4" d="M418.95,227.14c-0.27-1.54-0.25-2.91,0.05-4.13c0.3-1.22,0.84-2.22,1.62-3.01c0.78-0.79,1.76-1.34,2.94-1.63
				l0.48,2.79c-0.79,0.22-1.4,0.6-1.84,1.16c-0.44,0.56-0.72,1.22-0.85,2c-0.13,0.77-0.12,1.57,0.03,2.4
				c0.17,0.96,0.47,1.8,0.92,2.51c0.45,0.71,1,1.24,1.65,1.59c0.65,0.35,1.35,0.46,2.1,0.33c0.69-0.12,1.21-0.41,1.57-0.87
				c0.36-0.46,0.63-1.03,0.79-1.72c0.17-0.69,0.29-1.43,0.36-2.23l0.28-2.7c0.19-1.8,0.65-3.26,1.39-4.37
				c0.74-1.11,1.82-1.79,3.23-2.03c1.2-0.21,2.31-0.07,3.32,0.43c1.01,0.49,1.86,1.25,2.55,2.27c0.69,1.02,1.15,2.22,1.39,3.59
				c0.24,1.4,0.21,2.68-0.1,3.85c-0.31,1.16-0.84,2.13-1.58,2.9c-0.75,0.77-1.65,1.27-2.72,1.5l-0.46-2.66
				c1.02-0.3,1.74-0.94,2.15-1.91c0.42-0.97,0.52-2.08,0.29-3.35c-0.16-0.92-0.45-1.69-0.87-2.33c-0.42-0.64-0.92-1.1-1.51-1.4
				c-0.59-0.29-1.21-0.38-1.88-0.26c-0.74,0.13-1.3,0.46-1.67,1.01c-0.37,0.54-0.63,1.15-0.77,1.83c-0.14,0.68-0.24,1.29-0.29,1.83
				l-0.22,2.23c-0.05,0.6-0.15,1.27-0.3,2c-0.15,0.74-0.39,1.46-0.72,2.17c-0.33,0.71-0.81,1.32-1.42,1.84
				c-0.61,0.52-1.41,0.87-2.4,1.04c-1.16,0.2-2.26,0.08-3.3-0.36c-1.04-0.44-1.93-1.19-2.68-2.25
				C419.75,230.13,419.23,228.78,418.95,227.14z"/>
			<path class="st4" d="M440.12,236.05l2.43-0.15l0.99,16.32l-2.43,0.15l-0.41-6.77l-19.16,1.16l-0.17-2.75l19.16-1.16
				L440.12,236.05z"/>
			<path class="st4" d="M421.28,269.41l9.99-4.73l-0.16,3.1l-9.99,4.82L421.28,269.41z M421.9,257l21.6,1.08l-0.37,7.39
				c-0.08,1.68-0.44,3.05-1.07,4.11c-0.63,1.06-1.46,1.83-2.49,2.3c-1.03,0.48-2.19,0.68-3.48,0.62c-1.29-0.06-2.41-0.38-3.37-0.96
				c-0.96-0.58-1.69-1.42-2.19-2.53c-0.5-1.11-0.71-2.51-0.63-4.19l0.29-5.87l2.45,0.12l-0.29,5.74c-0.06,1.14,0.06,2.06,0.36,2.77
				s0.75,1.24,1.34,1.59c0.6,0.35,1.32,0.55,2.16,0.59c0.86,0.04,1.61-0.08,2.26-0.37c0.65-0.29,1.17-0.77,1.55-1.45
				s0.61-1.59,0.67-2.74l0.23-4.49l-19.18-0.96L421.9,257z"/>
			<path class="st4" d="M421.05,273.69l20.04,11.32l-0.53,3.15l-22.65,4.27l0.48-2.86l13.41-2.4c0.83-0.15,1.86-0.3,3.09-0.48
				c1.23-0.17,2.8-0.37,4.7-0.59l-0.09,0.52c-1.75-0.82-3.18-1.52-4.31-2.1c-1.13-0.58-2.03-1.05-2.71-1.42l-11.92-6.52
				L421.05,273.69z M426.36,278.58l2.38,0.4l-1.84,10.95l-2.38-0.4L426.36,278.58z"/>
			<path class="st4" d="M417.1,295.13l20.81,5.9l-0.75,2.65l-18.47-5.23l-2.73,9.64l-2.35-0.66L417.1,295.13z"/>
			<path class="st4" d="M406.78,324.43l2.22-4.73l2.21,1.04l-2.15,4.57c-0.75,1.59-1.06,3.06-0.95,4.39
				c0.12,1.33,0.62,2.52,1.52,3.58c0.9,1.05,2.14,1.95,3.72,2.69c1.57,0.74,3.04,1.11,4.4,1.13c1.37,0.02,2.59-0.34,3.67-1.07
				c1.08-0.73,1.97-1.85,2.69-3.37l2.31-4.92l2.21,1.04l-2.39,5.09c-0.9,1.91-2.05,3.36-3.47,4.35c-1.41,0.99-3.02,1.5-4.82,1.54
				c-1.8,0.04-3.71-0.42-5.73-1.37c-2.04-0.96-3.63-2.14-4.75-3.56c-1.13-1.42-1.76-3.01-1.89-4.77
				C405.44,328.29,405.84,326.42,406.78,324.43z M428.05,330l-19.58-9.19l1.17-2.5l19.58,9.19L428.05,330z"/>
			<path class="st4" d="M400.45,337.04l18.39,11.38l-6.94,11.21l-2.07-1.28l5.49-8.86l-6-3.71l-5.11,8.26l-2.07-1.28l5.11-8.26
				l-6.17-3.82l-5.55,8.97l-2.07-1.28L400.45,337.04z"/>
			<path class="st4" d="M380.35,364.54c1.22-1.39,2.65-2.33,4.27-2.82c1.63-0.49,3.34-0.51,5.14-0.03c1.8,0.47,3.55,1.46,5.27,2.97
				c1.72,1.52,2.93,3.13,3.63,4.86c0.7,1.72,0.9,3.42,0.62,5.1c-0.28,1.68-1.03,3.21-2.25,4.6c-1.22,1.39-2.65,2.32-4.28,2.81
				c-1.63,0.49-3.34,0.49-5.13,0.02c-1.79-0.48-3.55-1.47-5.27-2.99c-1.71-1.51-2.92-3.12-3.62-4.84c-0.7-1.72-0.91-3.41-0.63-5.09
				C378.38,367.46,379.13,365.93,380.35,364.54z M382.27,366.23c-0.85,0.97-1.37,2.06-1.57,3.27c-0.2,1.21-0.02,2.47,0.53,3.77
				c0.55,1.3,1.51,2.56,2.89,3.78c1.39,1.23,2.77,2.03,4.13,2.41c1.36,0.38,2.63,0.39,3.81,0.05c1.18-0.35,2.19-1.01,3.04-1.97
				c0.86-0.97,1.38-2.07,1.58-3.29c0.2-1.22,0.02-2.48-0.53-3.78c-0.55-1.3-1.52-2.56-2.9-3.79c-1.38-1.21-2.75-2.01-4.11-2.39
				c-1.36-0.38-2.63-0.39-3.81-0.04C384.14,364.6,383.12,365.26,382.27,366.23z"/>
			<path class="st4" d="M371.46,374.5l14.36,16.18l-5.73,5.09c-1.13,1-2.23,1.64-3.31,1.9c-1.08,0.26-2.08,0.23-3.02-0.1
				c-0.93-0.33-1.75-0.89-2.45-1.68c-0.62-0.7-1-1.38-1.16-2.05c-0.16-0.67-0.15-1.32,0.01-1.94c0.16-0.62,0.42-1.21,0.78-1.76
				l-0.13-0.15c-0.53,0.42-1.19,0.7-1.98,0.82c-0.79,0.13-1.61,0.05-2.46-0.24c-0.86-0.29-1.66-0.85-2.41-1.7
				c-0.72-0.81-1.18-1.71-1.39-2.69c-0.21-0.98-0.08-2.02,0.38-3.1c0.46-1.09,1.33-2.2,2.6-3.33L371.46,374.5z M371.02,378.15
				l-3.8,3.37c-1.26,1.12-1.94,2.16-2.04,3.11c-0.1,0.96,0.16,1.79,0.78,2.49c0.48,0.54,1.06,0.92,1.74,1.13
				c0.68,0.21,1.39,0.23,2.14,0.06c0.75-0.17,1.47-0.57,2.16-1.18l3.91-3.47L371.02,378.15z M377.46,385.4l-3.56,3.16
				c-0.58,0.51-1,1.09-1.27,1.74c-0.27,0.65-0.36,1.3-0.26,1.96c0.09,0.66,0.39,1.27,0.88,1.83c0.62,0.7,1.39,1.08,2.31,1.13
				c0.92,0.05,1.9-0.39,2.95-1.32l3.63-3.22L377.46,385.4z"/>
			<path class="st4" d="M351.29,390.5c1.27-0.9,2.53-1.47,3.75-1.72c1.23-0.25,2.37-0.19,3.42,0.18c1.05,0.37,1.96,1.02,2.73,1.96
				l-2.32,1.63c-0.53-0.62-1.14-1.01-1.83-1.17c-0.69-0.16-1.41-0.13-2.17,0.09c-0.75,0.22-1.47,0.57-2.16,1.05
				c-0.8,0.56-1.43,1.2-1.88,1.91c-0.45,0.71-0.7,1.43-0.74,2.17c-0.04,0.74,0.16,1.42,0.6,2.04c0.4,0.57,0.89,0.92,1.46,1.05
				c0.57,0.13,1.2,0.12,1.89-0.02c0.69-0.14,1.42-0.35,2.17-0.62l2.56-0.9c1.71-0.6,3.22-0.8,4.54-0.61
				c1.32,0.19,2.39,0.88,3.22,2.05c0.7,1,1.05,2.06,1.04,3.19c-0.01,1.13-0.33,2.22-0.96,3.28c-0.63,1.06-1.51,1.99-2.65,2.79
				c-1.16,0.82-2.34,1.34-3.52,1.56c-1.18,0.22-2.28,0.16-3.3-0.19c-1.02-0.34-1.86-0.95-2.52-1.82l2.21-1.55
				c0.71,0.79,1.59,1.17,2.64,1.13c1.05-0.04,2.1-0.42,3.16-1.17c0.76-0.53,1.34-1.13,1.74-1.78c0.4-0.65,0.6-1.31,0.62-1.96
				c0.01-0.65-0.18-1.26-0.57-1.81c-0.43-0.62-0.98-0.98-1.62-1.08c-0.65-0.11-1.31-0.08-1.98,0.08c-0.67,0.16-1.27,0.33-1.78,0.51
				l-2.11,0.76c-0.56,0.21-1.21,0.4-1.94,0.58c-0.73,0.18-1.49,0.27-2.27,0.27s-1.54-0.17-2.27-0.49c-0.73-0.33-1.39-0.91-1.97-1.73
				c-0.68-0.97-1.04-2.01-1.08-3.14c-0.04-1.13,0.26-2.26,0.9-3.38C348.93,392.5,349.93,391.45,351.29,390.5z"/>
			<path class="st4" d="M341.85,397.25l10.47,18.93l-11.54,6.38l-1.18-2.13l9.12-5.04l-3.41-6.17l-8.5,4.7l-1.18-2.13l8.5-4.7
				l-3.51-6.35l-9.24,5.11l-1.18-2.13L341.85,397.25z"/>
			<path class="st4" d="M315.13,410.23l8.58,6.97l-2.87,1.2l-8.66-6.94L315.13,410.23z M326.6,405.43l8.34,19.96l-6.83,2.86
				c-1.55,0.65-2.94,0.92-4.17,0.81c-1.23-0.11-2.28-0.53-3.15-1.25c-0.88-0.73-1.56-1.68-2.06-2.87c-0.5-1.19-0.69-2.34-0.59-3.45
				c0.11-1.11,0.55-2.14,1.34-3.07c0.79-0.93,1.96-1.72,3.51-2.37l5.42-2.27l0.95,2.26l-5.3,2.22c-1.05,0.44-1.84,0.95-2.35,1.52
				c-0.51,0.57-0.79,1.21-0.85,1.9c-0.06,0.69,0.08,1.42,0.4,2.2c0.33,0.79,0.77,1.42,1.31,1.88c0.54,0.46,1.2,0.72,1.98,0.78
				c0.78,0.06,1.7-0.14,2.76-0.58l4.15-1.74l-7.41-17.72L326.6,405.43z"/>
			<path class="st4" d="M303.99,413.92l13.66,18.57l-2.79,0.81l-7.96-11.06c-0.46-0.63-1.04-1.49-1.76-2.56
				c-0.72-1.07-1.58-2.4-2.58-3.98l0.52-0.15c0.01,1.92,0,3.51-0.04,4.78c-0.04,1.27-0.07,2.29-0.11,3.06l-0.71,13.57l-2.82,0.82
				l1.54-22.97L303.99,413.92z"/>
			<path class="st4" d="M294.41,416.75l-4.02,22.66l-3.15,0.55l-11.55-19.94l2.86-0.5l6.72,11.85c0.41,0.73,0.9,1.65,1.48,2.76
				c0.57,1.1,1.28,2.52,2.12,4.24l-0.52,0.09c0.2-1.92,0.38-3.51,0.55-4.76c0.17-1.25,0.32-2.26,0.44-3.03l2.19-13.41L294.41,416.75
				z M291.56,423.38l0.41,2.37l-10.94,1.91l-0.41-2.37L291.56,423.38z"/>
			<path class="st4" d="M265.17,420.33c1.85-0.1,3.52,0.25,5.01,1.07s2.7,2.03,3.62,3.64c0.92,1.61,1.44,3.56,1.56,5.84
				c0.13,2.29-0.18,4.29-0.91,5.99c-0.73,1.7-1.8,3.04-3.2,4.02c-1.4,0.98-3.02,1.52-4.86,1.62c-1.09,0.06-2.13-0.04-3.12-0.31
				c-0.99-0.27-1.89-0.68-2.69-1.25c-0.81-0.57-1.49-1.28-2.06-2.13c-0.57-0.85-0.97-1.82-1.23-2.92l2.75-0.15
				c0.2,0.74,0.49,1.37,0.9,1.91c0.4,0.54,0.88,0.99,1.44,1.35c0.56,0.36,1.17,0.61,1.82,0.77c0.66,0.16,1.34,0.22,2.05,0.18
				c1.29-0.07,2.45-0.46,3.45-1.18c1.01-0.71,1.78-1.72,2.32-3.03c0.54-1.3,0.76-2.88,0.66-4.73c-0.1-1.84-0.49-3.37-1.18-4.61
				c-0.68-1.24-1.57-2.15-2.64-2.75c-1.08-0.59-2.26-0.86-3.55-0.79c-0.71,0.04-1.38,0.18-2.01,0.41c-0.64,0.23-1.21,0.56-1.73,0.97
				c-0.52,0.41-0.94,0.91-1.28,1.5c-0.34,0.59-0.57,1.25-0.68,1.99l-2.75,0.15c0.12-1.11,0.42-2.12,0.89-3.01
				c0.47-0.9,1.07-1.68,1.81-2.34c0.74-0.66,1.59-1.18,2.54-1.56C263.04,420.61,264.07,420.39,265.17,420.33z"/>
			<path class="st4" d="M249.24,442.34l0.67-21.62l2.76,0.08l-0.67,21.62L249.24,442.34z"/>
			<path class="st4" d="M236.45,419.35c1.84,0.22,3.42,0.86,4.75,1.93c1.33,1.06,2.31,2.47,2.93,4.21c0.63,1.75,0.8,3.76,0.53,6.02
				c-0.27,2.28-0.93,4.19-1.95,5.74c-1.03,1.55-2.31,2.68-3.85,3.4c-1.54,0.72-3.23,0.97-5.07,0.75c-1.84-0.22-3.41-0.87-4.74-1.93
				c-1.32-1.07-2.3-2.47-2.92-4.22c-0.62-1.75-0.8-3.76-0.52-6.04c0.27-2.27,0.92-4.18,1.94-5.72c1.02-1.55,2.3-2.68,3.84-3.4
				C232.93,419.38,234.62,419.13,236.45,419.35z M236.15,421.89c-1.28-0.15-2.47,0.03-3.58,0.55c-1.11,0.52-2.05,1.38-2.81,2.57
				c-0.76,1.19-1.25,2.7-1.47,4.52c-0.22,1.84-0.1,3.44,0.35,4.77c0.46,1.34,1.16,2.39,2.12,3.17c0.95,0.77,2.07,1.24,3.35,1.39
				c1.29,0.16,2.49-0.03,3.61-0.56c1.12-0.53,2.06-1.39,2.82-2.58c0.76-1.19,1.25-2.7,1.48-4.54c0.22-1.83,0.1-3.4-0.36-4.74
				c-0.46-1.33-1.17-2.39-2.13-3.17C238.56,422.51,237.43,422.05,236.15,421.89z M234.71,443.36l-2.53,3.99l-2.9-0.35l3.31-3.9
				L234.71,443.36z"/>
			<path class="st4" d="M223.26,417.74l-5.42,20.94l-3.15-0.81l-5.05-15.6c-0.14-0.4-0.29-0.92-0.47-1.55
				c-0.18-0.63-0.36-1.33-0.56-2.11c-0.19-0.78-0.37-1.6-0.52-2.47l0.38,0.1c-0.12,0.83-0.26,1.61-0.42,2.36
				c-0.15,0.75-0.3,1.43-0.45,2.05c-0.15,0.62-0.28,1.15-0.39,1.58l-3.32,12.85l-2.67-0.69l5.42-20.94l3.18,0.82l4.51,13.88
				c0.2,0.64,0.41,1.3,0.61,1.98c0.2,0.68,0.42,1.47,0.66,2.39c0.24,0.92,0.54,2.05,0.9,3.41l-0.49-0.13
				c0.22-1.05,0.43-2.02,0.62-2.91c0.19-0.89,0.36-1.67,0.5-2.33c0.15-0.66,0.27-1.18,0.36-1.56l3.09-11.95L223.26,417.74z"/>
			<path class="st4" d="M186.86,405.2c1.68,0.78,2.99,1.87,3.92,3.29c0.94,1.42,1.43,3.06,1.49,4.91c0.05,1.85-0.4,3.82-1.35,5.89
				c-0.96,2.08-2.17,3.7-3.61,4.86c-1.45,1.16-3.02,1.84-4.71,2.05c-1.69,0.21-3.38-0.07-5.05-0.85c-0.99-0.46-1.86-1.04-2.61-1.73
				c-0.75-0.7-1.35-1.49-1.79-2.37c-0.44-0.88-0.72-1.83-0.82-2.84c-0.1-1.01-0.01-2.06,0.28-3.16l2.5,1.16
				c-0.17,0.74-0.21,1.45-0.1,2.11c0.1,0.67,0.32,1.29,0.64,1.86c0.33,0.58,0.74,1.09,1.25,1.54c0.51,0.45,1.08,0.82,1.72,1.12
				c1.18,0.54,2.38,0.74,3.6,0.58s2.38-0.69,3.47-1.59c1.09-0.9,2.02-2.19,2.79-3.87c0.77-1.67,1.15-3.21,1.12-4.62
				s-0.37-2.64-1.05-3.67c-0.67-1.03-1.6-1.82-2.76-2.36c-0.64-0.3-1.3-0.49-1.97-0.58c-0.67-0.09-1.33-0.08-1.98,0.04
				c-0.65,0.12-1.26,0.36-1.84,0.72c-0.58,0.36-1.09,0.84-1.54,1.44l-2.5-1.16c0.63-0.92,1.36-1.67,2.2-2.25
				c0.84-0.57,1.73-0.98,2.7-1.22c0.96-0.24,1.95-0.3,2.97-0.19C184.85,404.45,185.86,404.74,186.86,405.2z"/>
			<path class="st4" d="M162.46,417.16l10.75-18.77l2.39,1.37l-10.75,18.77L162.46,417.16z"/>
			<path class="st4" d="M169,395.98l-12.14,17.9l-10.91-7.4l1.37-2.02l8.63,5.85l3.96-5.84l-8.04-5.45l1.37-2.02l8.04,5.45
				l4.08-6.01l-8.73-5.93l1.37-2.02L169,395.98z"/>
			<path class="st4" d="M154.78,386.17l-14.16,16.35l-2.46-2.13l2.41-16.22c0.06-0.42,0.15-0.95,0.27-1.59s0.26-1.35,0.44-2.14
				c0.17-0.78,0.38-1.6,0.63-2.45l0.3,0.26c-0.48,0.69-0.95,1.33-1.42,1.93c-0.47,0.6-0.91,1.14-1.32,1.63
				c-0.41,0.49-0.76,0.9-1.05,1.24l-8.69,10.03l-2.09-1.81l14.16-16.35l2.48,2.15l-2.13,14.44c-0.1,0.67-0.22,1.35-0.34,2.04
				c-0.12,0.69-0.28,1.51-0.47,2.44c-0.19,0.93-0.43,2.08-0.7,3.45l-0.38-0.33c0.67-0.84,1.28-1.62,1.85-2.34
				c0.57-0.71,1.06-1.33,1.49-1.86s0.76-0.94,1.02-1.23l8.08-9.33L154.78,386.17z"/>
			<path class="st4" d="M125.14,385.39l-1.81,1.64l-10.97-12.12l1.81-1.64l4.55,5.03l14.23-12.88l1.85,2.04l-14.23,12.88
				L125.14,385.39z"/>
			<path class="st4" d="M107.32,371.74l-4.62,0.99l-1.78-2.31l5.1-0.37L107.32,371.74z M107.45,368.44l17.14-13.2l1.68,2.19
				l-17.14,13.2L107.45,368.44z"/>
			<path class="st4" d="M121.63,351.39l-18.07,11.88l-7.19-10.93l2.04-1.34l5.67,8.62l6.19-4.07l-5.13-7.8l2.04-1.34l5.13,7.8
				l7.81-5.14L121.63,351.39z"/>
			<path class="st4" d="M92.25,344.94l18.91-10.5l1.34,2.41l-18.91,10.5L92.25,344.94z"/>
			<path class="st4" d="M105.46,322.18c0.75,1.69,1.01,3.38,0.79,5.06c-0.23,1.69-0.93,3.24-2.11,4.68
				c-1.18,1.43-2.81,2.61-4.9,3.54c-2.09,0.93-4.07,1.36-5.92,1.28c-1.85-0.08-3.48-0.6-4.9-1.55c-1.41-0.96-2.49-2.28-3.25-3.97
				c-0.45-1-0.72-2.01-0.82-3.03c-0.1-1.02-0.03-2.01,0.21-2.96c0.25-0.96,0.66-1.85,1.25-2.68c0.59-0.83,1.35-1.56,2.29-2.19
				l1.12,2.52c-0.62,0.44-1.11,0.95-1.47,1.52c-0.36,0.57-0.61,1.18-0.74,1.83c-0.13,0.65-0.16,1.31-0.07,1.98
				c0.09,0.67,0.27,1.33,0.56,1.97c0.53,1.18,1.31,2.12,2.33,2.81c1.03,0.69,2.25,1.05,3.66,1.09c1.41,0.04,2.96-0.32,4.65-1.07
				c1.68-0.75,2.98-1.66,3.89-2.74c0.91-1.08,1.45-2.23,1.63-3.45c0.17-1.22,0-2.42-0.53-3.59c-0.29-0.65-0.65-1.22-1.1-1.74
				c-0.45-0.51-0.95-0.93-1.52-1.27c-0.57-0.34-1.19-0.56-1.86-0.67c-0.67-0.11-1.37-0.09-2.11,0.07l-1.12-2.52
				c1.08-0.28,2.13-0.36,3.13-0.24c1.01,0.12,1.95,0.41,2.83,0.86c0.88,0.46,1.67,1.06,2.36,1.82
				C104.44,320.3,105.01,321.18,105.46,322.18z"/>
			<path class="st4" d="M101.2,313.22l-22.98-1.16l-0.94-3.05l18.34-13.96l0.85,2.78l-10.92,8.15c-0.68,0.5-1.53,1.1-2.55,1.81
				c-1.02,0.7-2.34,1.58-3.94,2.63l-0.15-0.5c1.93-0.05,3.53-0.06,4.79-0.05c1.26,0.01,2.28,0.03,3.06,0.05l13.58,0.49L101.2,313.22
				z M94.27,311.22l-2.3,0.71l-3.26-10.62l2.3-0.71L94.27,311.22z"/>
			<path class="st4" d="M94.42,288.42l-8.7,1.68l-11.04,10.23l-0.61-3.14l6.04-5.53c0.68-0.62,1.33-1.19,1.96-1.69
				c0.63-0.5,1.44-1.05,2.43-1.64l0.21,1.08c-1.16-0.18-2.13-0.39-2.91-0.62c-0.78-0.23-1.58-0.5-2.4-0.81l-7.67-2.87l-0.6-3.12
				l14.05,5.39l8.7-1.68L94.42,288.42z"/>
			<path class="st4" d="M91.22,260.31l0.11,5.23l-2.44,0.05l-0.1-5.05c-0.04-1.76-0.4-3.21-1.1-4.36c-0.7-1.14-1.68-1.99-2.95-2.53
				c-1.27-0.55-2.78-0.8-4.53-0.77c-1.73,0.03-3.21,0.35-4.45,0.94c-1.23,0.59-2.17,1.45-2.82,2.58c-0.65,1.13-0.95,2.53-0.92,4.21
				l0.11,5.43l-2.44,0.05l-0.11-5.62c-0.04-2.11,0.35-3.92,1.18-5.43c0.83-1.51,2.04-2.68,3.64-3.51c1.6-0.83,3.51-1.27,5.75-1.31
				c2.25-0.05,4.2,0.32,5.84,1.09c1.64,0.77,2.91,1.92,3.81,3.44C90.7,256.25,91.17,258.11,91.22,260.31z M69.67,264.74l21.63-0.44
				l0.06,2.76l-21.63,0.44L69.67,264.74z"/>
			<path class="st4" d="M91.01,249.06l-20.78-9.88l0.3-3.18l22.29-5.86l-0.28,2.89l-13.21,3.34c-0.82,0.2-1.83,0.43-3.05,0.69
				c-1.22,0.26-2.76,0.56-4.65,0.92l0.05-0.52c1.8,0.7,3.28,1.29,4.44,1.79c1.16,0.5,2.1,0.9,2.81,1.22l12.35,5.66L91.01,249.06z
				 M85.37,244.55l-2.4-0.23l1.06-11.06l2.4,0.23L85.37,244.55z"/>
			<path class="st4" d="M73.94,227.24l-2.39-0.48l3.2-16.03l2.39,0.48l-1.33,6.65l18.82,3.76l-0.54,2.7l-18.82-3.76L73.94,227.24z"
				/>
			<path class="st4" d="M99.58,204.24c-0.57,1.76-1.51,3.18-2.81,4.28c-1.3,1.1-2.87,1.78-4.7,2.06c-1.84,0.28-3.84,0.06-6.01-0.65
				c-2.18-0.71-3.93-1.72-5.25-3.03c-1.32-1.31-2.18-2.79-2.59-4.44c-0.41-1.65-0.32-3.36,0.25-5.12c0.57-1.76,1.51-3.18,2.82-4.27
				c1.3-1.09,2.87-1.77,4.71-2.04c1.83-0.27,3.84-0.05,6.02,0.66c2.17,0.71,3.92,1.71,5.24,3.02c1.32,1.3,2.18,2.78,2.59,4.43
				C100.24,200.78,100.15,202.48,99.58,204.24z M97.15,203.44c0.4-1.22,0.45-2.43,0.15-3.62c-0.3-1.19-0.96-2.28-1.98-3.26
				c-1.02-0.98-2.4-1.75-4.15-2.33c-1.77-0.58-3.35-0.77-4.75-0.58c-1.4,0.19-2.57,0.68-3.52,1.46c-0.94,0.79-1.62,1.79-2.02,3.01
				c-0.4,1.23-0.45,2.45-0.15,3.65c0.3,1.2,0.96,2.29,1.98,3.27c1.02,0.98,2.41,1.76,4.16,2.33c1.75,0.57,3.32,0.76,4.72,0.57
				c1.4-0.19,2.57-0.68,3.52-1.47C96.07,205.69,96.74,204.68,97.15,203.44z"/>
			<path class="st4" d="M107.11,185.48c-0.66,1.41-1.47,2.53-2.41,3.35c-0.94,0.82-1.96,1.34-3.06,1.54
				c-1.09,0.2-2.21,0.09-3.34-0.35l1.2-2.56c0.77,0.28,1.49,0.31,2.17,0.11c0.68-0.2,1.29-0.59,1.84-1.15
				c0.55-0.56,1-1.22,1.36-1.98c0.42-0.88,0.65-1.75,0.69-2.59c0.04-0.84-0.1-1.59-0.43-2.25c-0.33-0.66-0.84-1.15-1.54-1.48
				c-0.63-0.3-1.23-0.36-1.79-0.19c-0.56,0.17-1.11,0.49-1.64,0.96c-0.53,0.47-1.06,1.01-1.58,1.62l-1.78,2.05
				c-1.19,1.37-2.4,2.29-3.65,2.78c-1.24,0.49-2.51,0.42-3.81-0.19c-1.1-0.52-1.93-1.27-2.48-2.25c-0.55-0.98-0.81-2.09-0.79-3.32
				s0.33-2.48,0.92-3.74c0.61-1.29,1.37-2.32,2.29-3.1c0.92-0.78,1.91-1.27,2.96-1.47c1.05-0.21,2.08-0.09,3.09,0.34l-1.15,2.44
				c-1.01-0.33-1.96-0.23-2.86,0.33c-0.9,0.55-1.62,1.41-2.16,2.58c-0.4,0.84-0.6,1.64-0.63,2.41c-0.02,0.76,0.12,1.43,0.44,2.01
				c0.31,0.57,0.78,1.01,1.39,1.29c0.68,0.32,1.33,0.37,1.95,0.14c0.62-0.23,1.18-0.58,1.68-1.05c0.51-0.47,0.94-0.92,1.29-1.33
				l1.46-1.7c0.39-0.46,0.85-0.95,1.4-1.47c0.54-0.52,1.15-0.97,1.83-1.36c0.68-0.39,1.42-0.62,2.22-0.7
				c0.8-0.08,1.66,0.1,2.57,0.53c1.07,0.5,1.9,1.23,2.5,2.19c0.6,0.96,0.9,2.09,0.9,3.38C108.17,182.57,107.82,183.97,107.11,185.48
				z"/>
			<path class="st4" d="M114.97,169.5l-13.33-18.76l1.82-2.63l22.32,5.75l-1.65,2.39l-13.17-3.52c-0.81-0.22-1.81-0.51-3-0.88
				c-1.19-0.37-2.69-0.85-4.5-1.46l0.3-0.43c1.23,1.49,2.23,2.73,3.01,3.73c0.77,1,1.39,1.81,1.85,2.44l8.02,10.96L114.97,169.5z
				 M112.24,162.82l-1.98-1.37l6.31-9.14l1.98,1.37L112.24,162.82z"/>
			<path class="st4" d="M127.59,151.76l-16.24-14.29l5.06-5.76c1-1.13,2.01-1.9,3.05-2.29c1.04-0.4,2.04-0.49,3.01-0.27
				c0.97,0.21,1.85,0.67,2.64,1.36c0.7,0.61,1.16,1.24,1.4,1.89c0.24,0.65,0.31,1.29,0.23,1.93c-0.09,0.64-0.27,1.25-0.56,1.84
				l0.15,0.13c0.48-0.48,1.1-0.84,1.86-1.06c0.76-0.22,1.59-0.25,2.47-0.07c0.89,0.18,1.75,0.64,2.6,1.39
				c0.81,0.72,1.38,1.55,1.71,2.5c0.32,0.95,0.33,1.99,0,3.13c-0.32,1.14-1.04,2.34-2.17,3.62L127.59,151.76z M120.3,141.67
				l3.14-3.58c0.51-0.58,0.86-1.21,1.05-1.88c0.19-0.67,0.19-1.33,0.02-1.98c-0.18-0.64-0.54-1.21-1.1-1.7
				c-0.7-0.62-1.52-0.9-2.43-0.84s-1.84,0.62-2.77,1.67l-3.2,3.64L120.3,141.67z M127.58,148.08l3.36-3.82
				c1.11-1.26,1.66-2.38,1.64-3.34c-0.02-0.96-0.38-1.75-1.08-2.37c-0.54-0.48-1.17-0.78-1.87-0.91c-0.7-0.13-1.41-0.06-2.13,0.2
				c-0.72,0.26-1.39,0.74-2,1.44l-3.45,3.92L127.58,148.08z"/>
			<path class="st4" d="M127.41,120.29l15.05,15.54l-1.98,1.92l-15.05-15.54L127.41,120.29z"/>
			<path class="st4" d="M145.95,132.44l-13.83-16.63l10.13-8.43l1.56,1.87l-8.01,6.67l4.51,5.42l7.47-6.21l1.56,1.87l-7.47,6.21
				l4.64,5.58l8.11-6.75l1.56,1.87L145.95,132.44z"/>
			<path class="st4" d="M159.4,121.53l-11.96-18.03l6.17-4.09c1.4-0.93,2.72-1.46,3.94-1.58c1.23-0.12,2.34,0.09,3.33,0.64
				c1,0.55,1.85,1.36,2.56,2.43c0.71,1.07,1.12,2.17,1.23,3.28c0.11,1.11-0.14,2.2-0.73,3.27c-0.6,1.06-1.6,2.06-3,2.99l-4.9,3.25
				l-1.36-2.04l4.79-3.18c0.95-0.63,1.62-1.28,2.02-1.94c0.39-0.66,0.55-1.34,0.48-2.02c-0.07-0.69-0.34-1.38-0.81-2.09
				c-0.48-0.72-1.02-1.25-1.64-1.6c-0.62-0.35-1.31-0.48-2.09-0.39c-0.78,0.09-1.64,0.45-2.6,1.09l-3.75,2.49l10.62,16.01
				L159.4,121.53z M169.76,114.66l-9.74-5.23l2.59-1.72l9.81,5.18L169.76,114.66z"/>
			<path class="st4" d="M165.21,94.95l-1.11-2.17l14.55-7.45l1.11,2.17l-6.03,3.09l8.75,17.08l-2.45,1.26l-8.75-17.08L165.21,94.95z
				"/>
			<path class="st4" d="M199.16,100.75c-1.73,0.64-3.43,0.79-5.1,0.46c-1.67-0.34-3.18-1.14-4.54-2.41
				c-1.36-1.27-2.43-2.97-3.23-5.11c-0.8-2.15-1.09-4.15-0.89-5.99c0.2-1.85,0.83-3.44,1.87-4.79c1.04-1.35,2.43-2.34,4.17-2.98
				c1.73-0.64,3.43-0.79,5.1-0.45c1.66,0.34,3.17,1.15,4.53,2.42c1.35,1.27,2.43,2.98,3.22,5.13c0.79,2.14,1.09,4.13,0.89,5.98
				c-0.2,1.84-0.82,3.44-1.86,4.78C202.28,99.11,200.89,100.11,199.16,100.75z M198.27,98.35c1.21-0.45,2.19-1.16,2.93-2.13
				c0.75-0.97,1.19-2.16,1.32-3.57c0.13-1.41-0.12-2.97-0.76-4.7c-0.65-1.74-1.48-3.1-2.5-4.08c-1.02-0.98-2.13-1.6-3.33-1.85
				c-1.2-0.25-2.41-0.15-3.61,0.29c-1.22,0.45-2.2,1.17-2.95,2.15c-0.75,0.98-1.19,2.17-1.33,3.58c-0.13,1.41,0.12,2.98,0.76,4.71
				c0.64,1.72,1.47,3.07,2.48,4.05c1.02,0.98,2.13,1.59,3.34,1.84C195.84,98.9,197.05,98.8,198.27,98.35z"/>
			<path class="st4" d="M218.53,95c-1.52,0.36-2.89,0.42-4.12,0.19c-1.23-0.23-2.27-0.71-3.11-1.44s-1.44-1.68-1.8-2.83l2.76-0.65
				c0.26,0.77,0.68,1.36,1.27,1.77c0.58,0.4,1.26,0.65,2.04,0.73c0.78,0.08,1.58,0.02,2.4-0.17c0.95-0.22,1.77-0.58,2.45-1.07
				c0.68-0.49,1.18-1.07,1.49-1.74c0.31-0.67,0.38-1.38,0.2-2.12c-0.16-0.68-0.48-1.18-0.96-1.52c-0.48-0.33-1.07-0.56-1.77-0.69
				c-0.7-0.12-1.44-0.2-2.25-0.23l-2.71-0.12c-1.81-0.08-3.29-0.46-4.44-1.13c-1.15-0.67-1.89-1.71-2.22-3.1
				c-0.28-1.19-0.2-2.3,0.23-3.34c0.43-1.04,1.14-1.93,2.11-2.68c0.98-0.75,2.14-1.28,3.5-1.6c1.38-0.33,2.67-0.37,3.85-0.13
				c1.18,0.24,2.18,0.71,2.99,1.41c0.82,0.7,1.37,1.57,1.66,2.63l-2.63,0.62c-0.36-1-1.04-1.68-2.03-2.04
				c-0.99-0.36-2.11-0.39-3.36-0.1c-0.9,0.21-1.66,0.55-2.28,1.01c-0.61,0.46-1.05,0.99-1.3,1.59c-0.26,0.6-0.31,1.23-0.15,1.89
				c0.17,0.73,0.54,1.27,1.1,1.61c0.56,0.34,1.19,0.56,1.87,0.66c0.68,0.1,1.3,0.16,1.84,0.19l2.24,0.08
				c0.6,0.02,1.27,0.08,2.02,0.18c0.75,0.1,1.48,0.3,2.2,0.59c0.72,0.29,1.37,0.73,1.93,1.31c0.56,0.58,0.95,1.36,1.18,2.34
				c0.27,1.15,0.21,2.26-0.17,3.32c-0.38,1.06-1.08,2-2.09,2.8C221.46,94.02,220.15,94.62,218.53,95z"/>
			<path class="st4" d="M231.62,92.28c-0.54,0.08-1.02-0.04-1.46-0.36c-0.44-0.32-0.69-0.75-0.77-1.29
				c-0.08-0.54,0.04-1.02,0.36-1.46c0.32-0.43,0.75-0.69,1.29-0.77c0.54-0.08,1.02,0.04,1.46,0.36c0.44,0.32,0.69,0.75,0.77,1.29
				c0.08,0.54-0.04,1.02-0.36,1.46C232.58,91.94,232.15,92.2,231.62,92.28z"/>
		</g>
	</g>
</g>
</svg>
